<?xml version="1.0" encoding="utf-8"?>
<!-- Generator: Adobe Illustrator 26.0.1, SVG Export Plug-In . SVG Version: 6.00 Build 0)  -->
<svg version="1.1" xmlns="http://www.w3.org/2000/svg" xmlns:xlink="http://www.w3.org/1999/xlink" x="0px" y="0px"
	 viewBox="0 0 387 388" style="enable-background:new 0 0 387 388;" xml:space="preserve">
<style type="text/css">
	.st0{fill:#870AA0;}
	.st1{fill:#2819FF;}
	.st2{fill:#23C3FF;}
	.st3{fill:#FFFFFF;}
</style>
<g id="Lager_3">
</g>
<g id="Lager_5">
</g>
<g id="Lager_4">
	<g>
		<rect x="-1" y="0" class="st0" width="388" height="388"/>
		<path class="st0" d="M387.5,388.5h-389v-389h389V388.5z M-0.5,387.5h387V0.5h-387V387.5z"/>
	</g>
	<g>
		
			<rect x="122.5" y="180.5" transform="matrix(0.1314 -0.9913 0.9913 0.1314 3.6263 405.1386)" class="st1" width="221" height="40"/>
		<path class="st1" d="M238.74,313.23l-40.65-5.39l0.07-0.5l29.1-219.58l40.65,5.39l-0.07,0.5L238.74,313.23z M199.22,306.99
			l38.66,5.12l28.9-218.09l-38.66-5.12L199.22,306.99z"/>
	</g>
	<g>
		
			<rect x="51.5" y="171.5" transform="matrix(0.1314 -0.9913 0.9913 0.1314 -49.1237 326.9365)" class="st1" width="221" height="40"/>
		<path class="st1" d="M167.74,304.23l-40.65-5.39l0.07-0.5l29.1-219.58l40.65,5.39l-0.07,0.5L167.74,304.23z M128.22,297.99
			l38.66,5.12l28.9-218.09l-38.66-5.12L128.22,297.99z"/>
	</g>
	<g>
		<rect x="87.5" y="136.5" class="st2" width="221" height="40"/>
		<path class="st2" d="M309,177H87v-41h222V177z M88,176h220v-39H88V176z"/>
	</g>
	<g>
		<rect x="76.5" y="201.5" class="st3" width="221" height="40"/>
		<path class="st3" d="M298,242H76v-41h222V242z M77,241h220v-39H77V241z"/>
	</g>
</g>
<g id="Lager_2">
</g>
</svg>
