<?xml version="1.0" encoding="utf-8"?>
<!-- Generator: Adobe Illustrator 26.0.1, SVG Export Plug-In . SVG Version: 6.00 Build 0)  -->
<svg version="1.1" xmlns="http://www.w3.org/2000/svg" xmlns:xlink="http://www.w3.org/1999/xlink" x="0px" y="0px"
	 viewBox="0 0 530 244" style="enable-background:new 0 0 530 244;" xml:space="preserve">
<style type="text/css">
	.st0{fill:#00F0AF;}
	.st1{fill:#FA1996;}
	.st2{fill:#FF5F0A;}
	.st3{fill:#23C3FF;}
	.st4{fill:#FFCD32;}
	.st5{fill:#00BE5F;}
	.st6{fill:#870AA0;}
	.st7{fill:#2819FF;}
	.st8{fill:#FF931E;}
</style>
<g id="Lager_1">
</g>
<g id="Lager_2">
</g>
<g id="Lager_3">
	<g>
		<path class="st6" d="M383,120.21c15.93,0,28.89,13.91,28.89,31.01c32.11,0,32.11,0,32.11,0c0-36.89-27.31-66.8-61-66.8l0,0
			c-33.69,0-61,29.91-61,66.8c0,0,0,0,32.11,0C354.11,134.12,367.07,120.21,383,120.21"/>
		<g>
			<path class="st8" d="M293,118.12c15.93,0,28.89,13.91,28.89,31.01c32.11,0,32.11,0,32.11,0c0-36.89-27.31-66.8-61-66.8l0,0
				c-33.69,0-61,29.91-61,66.8c0,0,0,0,32.11,0C264.11,132.04,277.07,118.12,293,118.12"/>
			<rect x="322" y="147.19" class="st1" width="32" height="58.31"/>
			<rect x="116" y="86.51" class="st2" width="30" height="118.99"/>
			<rect x="176" y="109.47" class="st2" width="30" height="96.03"/>
			<rect x="232" y="86.51" class="st2" width="32" height="118.99"/>
			<rect x="468" y="86.51" class="st1" width="30" height="45.92"/>
			<path class="st2" d="M444.01,142.14c-0.01-0.03-0.01-0.07-0.01-0.1c0,0.98,0,1.98,0,3.04c0.07-0.01,0.15-0.02,0.21-0.02
				C444.03,144.1,443.96,143.12,444.01,142.14z"/>
			<ellipse class="st2" cx="481" cy="56.24" rx="17" ry="17.74"/>
			<path class="st2" d="M89,117.82c14.89,0,27,12.17,27,27.14c0,14.96-12.11,27.14-27,27.14s-27-12.17-27-27.14
				C62,130,74.11,117.82,89,117.82 M89,86.51c-31.48,0-57,26.17-57,58.45c0,32.28,25.52,58.45,57,58.45s57-26.17,57-58.45
				C146,112.68,120.48,86.51,89,86.51L89,86.51z"/>
			<rect x="412" y="149.14" class="st2" width="32" height="56.36"/>
			<path class="st6" d="M383,120.21c15.93,0,28.89,13.91,28.89,31.01c32.11,0,32.11,0,32.11,0c0-36.89-27.31-66.8-61-66.8l0,0
				c-33.69,0-61,29.91-61,66.8c0,0,0,0,32.11,0C354.11,134.12,367.07,120.21,383,120.21"/>
			<rect x="116" y="86.51" class="st6" width="30" height="118.99"/>
			<rect x="176" y="109.47" class="st6" width="30" height="96.03"/>
			<rect x="232" y="86.51" class="st6" width="32" height="118.99"/>
			<rect x="468" y="180.45" class="st6" width="30" height="25.05"/>
			<path class="st2" d="M444.01,142.14c-0.01-0.03-0.01-0.07-0.01-0.1c0,0.98,0,1.98,0,3.04c0.07-0.01,0.15-0.02,0.21-0.02
				C444.03,144.1,443.96,143.12,444.01,142.14z"/>
			<ellipse class="st1" cx="481" cy="56.24" rx="17" ry="17.74"/>
			<path class="st1" d="M89,117.82c14.89,0,27,12.17,27,27.14c0,14.96-12.11,27.14-27,27.14s-27-12.17-27-27.14
				C62,130,74.11,117.82,89,117.82 M89,86.51c-31.48,0-57,26.17-57,58.45c0,32.28,25.52,58.45,57,58.45s57-26.17,57-58.45
				C146,112.68,120.48,86.51,89,86.51L89,86.51z"/>
			<rect x="412" y="149.14" class="st1" width="32" height="56.36"/>
			<path class="st8" d="M293,118.12c15.93,0,28.89,13.91,28.89,31.01c32.11,0,32.11,0,32.11,0c0-36.89-27.31-66.8-61-66.8l0,0
				c-33.69,0-61,29.91-61,66.8c0,0,0,0,32.11,0C264.11,132.04,277.07,118.12,293,118.12"/>
			<rect x="322" y="142.88" class="st1" width="32" height="62.62"/>
		</g>
		<rect x="176" y="38.5" class="st1" width="30" height="70.97"/>
		<rect x="468" y="132.44" class="st4" width="30" height="48.01"/>
	</g>
</g>
<g id="Lager_3_kopia">
</g>
</svg>
